<?xml version="1.0" encoding="utf-8"?>
<!-- Generator: Adobe Illustrator 16.0.0, SVG Export Plug-In . SVG Version: 6.00 Build 0)  -->
<!DOCTYPE svg PUBLIC "-//W3C//DTD SVG 1.1//EN" "http://www.w3.org/Graphics/SVG/1.1/DTD/svg11.dtd">
<svg version="1.1" id="Layer_1" xmlns="http://www.w3.org/2000/svg" xmlns:xlink="http://www.w3.org/1999/xlink" x="0px" y="0px"
	 width="512px" height="165.259px" viewBox="0 0 512 165.259" enable-background="new 0 0 512 165.259" xml:space="preserve">
<g>
	<g>
		<g>
			<path fill="#FFFFFF" d="M209.128,54.833l8.229,17.807h-5.785l-8.229-17.807h-8.936l-2.764,17.807h-5.465l7.328-46.414h24.301
				c1.198,0,2.227,0.086,3.085,0.258c0.856,0.172,1.542,0.504,2.058,0.996c0.514,0.492,0.835,1.188,0.964,2.089
				c0.129,0.899,0.085,2.058-0.129,3.472l-2.378,14.979c-0.215,1.414-0.537,2.57-0.965,3.471c-0.429,0.9-0.976,1.597-1.64,2.09
				c-0.665,0.492-1.456,0.825-2.378,0.996c-0.922,0.172-1.982,0.258-3.183,0.258H209.128z M198.136,31.368l-2.893,18.32h17.807
				c1.156,0,1.917-0.191,2.281-0.578c0.364-0.386,0.611-1.027,0.74-1.928l2.121-13.243c0.129-0.942,0.064-1.606-0.193-1.993
				c-0.256-0.385-0.942-0.578-2.057-0.578H198.136z"/>
			<path fill="#FFFFFF" d="M217.921,73h-6.58l-8.229-17.807h-8.396L191.953,73h-6.196l7.441-47.136h24.609
				c1.214,0,2.275,0.089,3.155,0.265c0.921,0.185,1.673,0.552,2.236,1.089c0.571,0.549,0.933,1.322,1.072,2.299
				c0.133,0.928,0.089,2.131-0.13,3.577l-2.378,14.981c-0.219,1.437-0.554,2.639-0.995,3.569c-0.452,0.95-1.041,1.698-1.751,2.224
				c-0.707,0.525-1.558,0.883-2.527,1.063c-0.937,0.174-2.03,0.263-3.248,0.263h-3.55L217.921,73z M211.802,72.278h4.99
				l-8.229-17.807h4.679c1.174,0,2.223-0.084,3.116-0.251c0.861-0.159,1.611-0.474,2.229-0.933c0.613-0.455,1.128-1.111,1.528-1.953
				c0.412-0.867,0.727-2.001,0.935-3.371l2.378-14.98c0.208-1.374,0.251-2.506,0.128-3.363c-0.116-0.814-0.404-1.447-0.856-1.881
				c-0.462-0.441-1.095-0.745-1.879-0.902c-0.833-0.166-1.847-0.251-3.014-0.251h-23.992l-7.215,45.692h4.733l2.764-17.807h9.476
				L211.802,72.278z M213.05,50.05h-18.229l3.006-19.042h18.115c1.273,0,2.022,0.235,2.357,0.739
				c0.311,0.465,0.393,1.199,0.25,2.241l-2.122,13.251c-0.14,0.978-0.413,1.673-0.834,2.119
				C215.154,49.823,214.322,50.05,213.05,50.05z M195.665,49.328h17.385c1.306,0,1.818-0.253,2.019-0.465
				c0.312-0.329,0.528-0.913,0.646-1.732l2.122-13.249c0.144-1.048,0.005-1.522-0.137-1.734c-0.084-0.127-0.422-0.418-1.757-0.418
				h-17.498L195.665,49.328z"/>
		</g>
		<g>
			<path fill="#FFFFFF" d="M252.647,44.997c0.129-0.942,0.064-1.607-0.192-1.993s-0.943-0.579-2.058-0.579H229.44l0.836-5.143
				h21.986c1.199,0,2.228,0.086,3.085,0.258c0.856,0.172,1.543,0.504,2.058,0.996c0.514,0.492,0.836,1.189,0.964,2.09
				c0.129,0.899,0.086,2.057-0.128,3.471l-3.473,21.729c-0.214,1.414-0.535,2.571-0.964,3.471c-0.429,0.9-0.964,1.598-1.606,2.09
				s-1.426,0.825-2.347,0.996c-0.922,0.172-1.983,0.258-3.183,0.258h-15.621c-1.2,0-2.229-0.086-3.085-0.258
				c-0.858-0.171-1.543-0.504-2.058-0.996c-0.514-0.492-0.846-1.189-0.996-2.09c-0.15-0.899-0.119-2.057,0.097-3.471l1.35-8.486
				c0.214-1.414,0.536-2.57,0.964-3.471c0.429-0.9,0.975-1.596,1.64-2.09c0.664-0.492,1.456-0.824,2.378-0.996
				c0.922-0.171,1.982-0.257,3.184-0.257h17.228L252.647,44.997z M230.663,64.925c-0.172,0.943-0.129,1.607,0.129,1.993
				c0.256,0.386,0.941,0.579,2.057,0.579h13.563c1.114,0,1.864-0.193,2.25-0.579s0.664-1.05,0.836-1.993l1.415-9.257h-16.201
				c-1.114,0-1.854,0.192-2.217,0.578c-0.365,0.386-0.633,1.052-0.804,1.993L230.663,64.925z"/>
			<path fill="#FFFFFF" d="M246.669,73h-15.621c-1.22,0-2.282-0.089-3.156-0.265c-0.92-0.184-1.673-0.55-2.236-1.09
				c-0.568-0.544-0.939-1.314-1.102-2.289c-0.157-0.938-0.125-2.144,0.096-3.586l1.35-8.488c0.218-1.437,0.552-2.639,0.994-3.568
				c0.453-0.951,1.042-1.699,1.751-2.225c0.705-0.523,1.556-0.881,2.526-1.062c0.941-0.175,2.035-0.263,3.25-0.263h16.921
				l0.85-5.227c0.144-1.047,0.005-1.521-0.137-1.734c-0.083-0.126-0.422-0.418-1.757-0.418h-21.381l0.953-5.864h22.293
				c1.216,0,2.277,0.089,3.155,0.264c0.923,0.185,1.675,0.552,2.237,1.09c0.572,0.549,0.933,1.322,1.071,2.3
				c0.133,0.929,0.09,2.132-0.129,3.575l-3.473,21.731c-0.218,1.439-0.553,2.643-0.994,3.57c-0.453,0.949-1.029,1.696-1.713,2.22
				c-0.686,0.526-1.526,0.884-2.501,1.065C248.98,72.911,247.887,73,246.669,73z M234.521,50.886c-1.171,0-2.22,0.085-3.118,0.252
				c-0.862,0.16-1.612,0.474-2.229,0.932c-0.613,0.454-1.127,1.111-1.528,1.954c-0.412,0.866-0.727,2.001-0.934,3.37l-1.35,8.488
				c-0.208,1.364-0.241,2.494-0.098,3.355c0.137,0.818,0.437,1.453,0.891,1.887c0.462,0.443,1.094,0.748,1.878,0.904
				c0.828,0.166,1.842,0.25,3.015,0.25h15.621c1.174,0,2.223-0.084,3.116-0.251c0.861-0.16,1.6-0.472,2.193-0.929
				c0.593-0.453,1.098-1.111,1.5-1.957c0.412-0.863,0.726-1.998,0.934-3.371l3.473-21.731c0.207-1.37,0.25-2.503,0.127-3.362
				c-0.115-0.813-0.403-1.446-0.856-1.881c-0.461-0.441-1.094-0.745-1.879-0.902c-0.831-0.166-1.846-0.25-3.014-0.25h-21.68
				l-0.719,4.421h20.533c1.273,0,2.022,0.235,2.358,0.739c0.311,0.467,0.392,1.199,0.249,2.242l-0.95,5.84H234.521z M246.412,67.857
				h-13.563c-1.256,0-2.026-0.242-2.357-0.739c-0.314-0.471-0.374-1.209-0.184-2.258l1.027-6.676
				c0.188-1.033,0.48-1.744,0.898-2.187c0.438-0.465,1.248-0.69,2.479-0.69h16.621l-1.479,9.672
				c-0.188,1.037-0.495,1.751-0.938,2.193C248.456,67.634,247.637,67.857,246.412,67.857z M234.712,56.028
				c-1.253,0-1.755,0.254-1.954,0.465c-0.314,0.333-0.554,0.941-0.711,1.811l-1.027,6.676c-0.193,1.061-0.067,1.529,0.072,1.738
				c0.084,0.126,0.422,0.418,1.757,0.418h13.563c1.258,0,1.779-0.258,1.995-0.473c0.33-0.331,0.578-0.938,0.735-1.803l1.351-8.832
				H234.712z"/>
		</g>
		<g>
			<path fill="#FFFFFF" d="M269.554,85.495h-4.949l6.042-12.791l-7.135-35.422h5.785l5.336,27.129l13.243-27.129h5.527
				L269.554,85.495z"/>
			<path fill="#FFFFFF" d="M269.777,85.856h-5.742l6.234-13.199l-7.198-35.735h6.522l5.186,26.366l12.871-26.366h6.334
				L269.777,85.856z M265.174,85.135h4.156l23.492-47.491h-4.721l-13.615,27.891L269,37.644h-5.048l7.071,35.105L265.174,85.135z"/>
		</g>
		<g>
			<path fill="#FFFFFF" d="M322.78,65.825c-0.214,1.414-0.536,2.571-0.963,3.471c-0.43,0.9-0.966,1.598-1.608,2.09
				s-1.425,0.825-2.346,0.996c-0.922,0.172-1.982,0.258-3.183,0.258H299.06c-1.2,0-2.229-0.086-3.086-0.258
				c-0.857-0.171-1.543-0.504-2.057-0.996c-0.515-0.492-0.847-1.189-0.996-2.09c-0.151-0.899-0.119-2.057,0.096-3.471l3.472-21.729
				c0.214-1.414,0.536-2.571,0.964-3.471c0.429-0.9,0.975-1.598,1.64-2.09c0.664-0.492,1.456-0.824,2.379-0.996
				c0.92-0.172,1.981-0.258,3.183-0.258h15.62c1.2,0,2.229,0.086,3.086,0.258s1.543,0.504,2.058,0.996
				c0.514,0.492,0.836,1.189,0.964,2.09c0.129,0.899,0.086,2.057-0.128,3.471L322.78,65.825z M314.424,67.497
				c1.114,0,1.865-0.193,2.25-0.579s0.664-1.05,0.836-1.993l3.15-19.928c0.127-0.942,0.063-1.607-0.193-1.993
				c-0.258-0.386-0.943-0.579-2.058-0.579h-13.563c-1.116,0-1.865,0.193-2.25,0.579c-0.387,0.386-0.643,1.051-0.771,1.993
				l-3.15,19.928c-0.172,0.943-0.128,1.607,0.129,1.993s0.942,0.579,2.057,0.579H314.424z"/>
			<path fill="#FFFFFF" d="M314.681,73H299.06c-1.22,0-2.282-0.089-3.157-0.265c-0.921-0.184-1.673-0.551-2.235-1.09
				c-0.569-0.544-0.94-1.314-1.103-2.29c-0.156-0.933-0.124-2.138,0.096-3.585l3.472-21.731c0.218-1.437,0.552-2.638,0.994-3.568
				c0.453-0.951,1.042-1.7,1.751-2.225c0.705-0.522,1.556-0.88,2.527-1.062c0.939-0.174,2.032-0.263,3.249-0.263h15.62
				c1.216,0,2.278,0.089,3.156,0.264c0.922,0.185,1.675,0.552,2.237,1.09c0.572,0.549,0.933,1.322,1.071,2.3
				c0.133,0.929,0.09,2.132-0.129,3.575l-3.473,21.731c-0.218,1.436-0.552,2.638-0.993,3.569c-0.454,0.95-1.03,1.696-1.715,2.221
				c-0.686,0.526-1.526,0.884-2.5,1.065C316.992,72.911,315.898,73,314.681,73z M304.653,37.644c-1.173,0-2.221,0.084-3.117,0.251
				c-0.862,0.161-1.612,0.474-2.229,0.931c-0.612,0.455-1.127,1.112-1.528,1.955c-0.412,0.867-0.727,2-0.934,3.37l-3.472,21.731
				c-0.208,1.368-0.24,2.498-0.097,3.354c0.137,0.819,0.436,1.454,0.89,1.888c0.462,0.443,1.094,0.748,1.878,0.904
				c0.829,0.166,1.844,0.25,3.016,0.25h15.621c1.174,0,2.223-0.084,3.116-0.251c0.86-0.159,1.598-0.472,2.192-0.929
				c0.594-0.453,1.099-1.112,1.503-1.957c0.41-0.867,0.725-2.002,0.932-3.371l3.473-21.731c0.207-1.37,0.25-2.503,0.127-3.362
				c-0.115-0.813-0.403-1.446-0.856-1.881c-0.461-0.441-1.094-0.745-1.879-0.902c-0.831-0.166-1.846-0.25-3.015-0.25H304.653z
				 M314.424,67.857h-13.564c-1.254,0-2.025-0.241-2.356-0.739c-0.314-0.473-0.375-1.211-0.185-2.258l3.149-19.92
				c0.141-1.027,0.427-1.746,0.873-2.191c0.458-0.461,1.278-0.685,2.505-0.685h13.563c1.271,0,2.021,0.235,2.357,0.739
				c0.31,0.465,0.392,1.197,0.251,2.242l-3.151,19.936c-0.188,1.033-0.494,1.748-0.937,2.191
				C316.469,67.634,315.649,67.857,314.424,67.857z M304.846,42.786c-1.26,0-1.779,0.257-1.994,0.473
				c-0.327,0.326-0.552,0.927-0.67,1.787l-3.151,19.936c-0.192,1.057-0.066,1.527,0.073,1.736c0.083,0.125,0.422,0.418,1.756,0.418
				h13.564c1.259,0,1.779-0.258,1.995-0.473c0.33-0.332,0.578-0.938,0.735-1.803l3.149-19.92c0.142-1.051,0.004-1.525-0.138-1.736
				c-0.083-0.125-0.423-0.418-1.757-0.418H304.846z"/>
		</g>
		<g>
			<path fill="#FFFFFF" d="M337.631,57.532c-1.201,0-2.229-0.086-3.086-0.258c-0.857-0.17-1.543-0.502-2.057-0.996
				c-0.515-0.492-0.848-1.189-0.997-2.089c-0.15-0.899-0.097-2.058,0.16-3.472l1.029-6.621c0.214-1.414,0.535-2.571,0.964-3.471
				c0.428-0.9,0.975-1.598,1.64-2.09c0.664-0.492,1.456-0.824,2.379-0.996c0.921-0.172,1.981-0.258,3.182-0.258h19.35l-0.835,5.143
				h-18.321c-1.115,0-1.864,0.193-2.251,0.579c-0.385,0.386-0.643,1.051-0.771,1.993l-0.771,4.82
				c-0.172,0.858-0.161,1.501,0.032,1.93c0.192,0.428,0.781,0.643,1.768,0.643h13.243c1.199,0,2.228,0.086,3.085,0.257
				c0.856,0.172,1.543,0.504,2.058,0.997c0.514,0.492,0.846,1.189,0.996,2.089c0.149,0.899,0.117,2.057-0.097,3.472l-1.093,6.621
				c-0.215,1.414-0.536,2.571-0.964,3.471c-0.43,0.9-0.965,1.598-1.607,2.09s-1.426,0.825-2.347,0.996
				c-0.922,0.172-1.982,0.258-3.182,0.258h-19.479l0.771-5.143h18.45c1.113,0,1.864-0.193,2.249-0.579
				c0.386-0.386,0.665-1.05,0.836-1.993l0.707-4.821c0.171-0.942,0.129-1.606-0.128-1.993c-0.257-0.386-0.943-0.578-2.058-0.578
				H337.631z"/>
			<path fill="#FFFFFF" d="M349.138,73H329.24l0.88-5.864h18.761c1.258,0,1.778-0.258,1.994-0.473
				c0.331-0.332,0.579-0.938,0.735-1.803l0.705-4.809c0.193-1.063,0.067-1.533-0.071-1.742c-0.083-0.125-0.422-0.416-1.757-0.416
				h-12.856c-1.22,0-2.282-0.09-3.157-0.265c-0.922-0.185-1.674-0.551-2.235-1.091c-0.569-0.544-0.941-1.314-1.104-2.289
				c-0.156-0.937-0.102-2.146,0.161-3.596l1.028-6.613c0.218-1.439,0.553-2.643,0.994-3.57c0.452-0.949,1.041-1.697,1.751-2.224
				c0.705-0.522,1.556-0.88,2.527-1.062c0.94-0.174,2.033-0.263,3.248-0.263h19.773l-0.952,5.864h-18.628
				c-1.258,0-1.78,0.258-1.996,0.473c-0.326,0.328-0.552,0.93-0.668,1.787l-0.772,4.829c-0.197,0.983-0.105,1.479,0.005,1.724
				c0.125,0.277,0.636,0.43,1.438,0.43h13.243c1.216,0,2.277,0.09,3.155,0.264c0.923,0.186,1.675,0.553,2.237,1.09
				c0.568,0.546,0.939,1.316,1.102,2.291c0.155,0.934,0.123,2.14-0.096,3.584l-1.093,6.627c-0.219,1.438-0.554,2.641-0.994,3.567
				c-0.454,0.95-1.03,1.698-1.714,2.221c-0.686,0.526-1.526,0.884-2.501,1.065C351.448,72.911,350.355,73,349.138,73z
				 M330.078,72.278h19.06c1.173,0,2.222-0.084,3.115-0.251c0.861-0.16,1.6-0.472,2.193-0.929c0.593-0.453,1.098-1.111,1.502-1.957
				c0.41-0.863,0.724-1.998,0.933-3.371l1.093-6.625c0.207-1.366,0.239-2.496,0.097-3.354c-0.136-0.818-0.436-1.453-0.89-1.889
				c-0.461-0.441-1.094-0.746-1.879-0.902c-0.831-0.166-1.846-0.25-3.014-0.25h-13.243c-1.152,0-1.838-0.281-2.097-0.856
				c-0.227-0.503-0.246-1.206-0.057-2.147l0.769-4.807c0.139-1.023,0.425-1.743,0.871-2.191c0.462-0.461,1.281-0.685,2.507-0.685
				h18.015l0.718-4.421h-18.926c-1.171,0-2.219,0.084-3.116,0.251c-0.862,0.161-1.612,0.474-2.229,0.931
				c-0.614,0.456-1.129,1.113-1.528,1.955c-0.412,0.864-0.726,1.998-0.934,3.37l-1.029,6.623c-0.25,1.376-0.304,2.503-0.161,3.356
				c0.136,0.818,0.436,1.453,0.891,1.888c0.462,0.443,1.093,0.747,1.878,0.903c0.829,0.166,1.844,0.25,3.016,0.25h12.856
				c1.273,0,2.022,0.235,2.358,0.739c0.313,0.472,0.372,1.21,0.183,2.258l-0.705,4.81c-0.188,1.037-0.494,1.752-0.938,2.195
				c-0.46,0.461-1.278,0.685-2.504,0.685h-18.14L330.078,72.278z"/>
		</g>
		<g>
			<path fill="#FFFFFF" d="M399.343,49.497l10.285,23.143h-5.978l-8.101-18.064L381.794,72.64h-5.915l17.55-23.143l-10.286-23.271
				h5.915l8.1,18.32l13.886-18.32h5.978L399.343,49.497z"/>
			<path fill="#FFFFFF" d="M410.184,73h-6.767l-7.948-17.724L381.973,73h-6.82l17.86-23.552l-10.424-23.584h6.704l7.946,17.977
				l13.624-17.977h6.885l-17.989,23.681L410.184,73z M403.884,72.278h5.188l-10.146-22.83l17.366-22.862h-5.07l-14.147,18.667
				l-8.253-18.667h-5.126l10.148,22.96l-17.239,22.732h5.01l14.016-18.404L403.884,72.278z"/>
		</g>
		<g>
			<path fill="#FFFFFF" d="M219.542,92.62c1.199,0,2.229,0.086,3.086,0.258c0.856,0.172,1.543,0.504,2.057,0.996
				c0.516,0.492,0.836,1.188,0.965,2.09c0.129,0.899,0.086,2.057-0.129,3.471l-5.206,32.785c-0.216,1.414-0.537,2.571-0.966,3.471
				c-0.428,0.9-0.963,1.598-1.605,2.09c-0.644,0.493-1.426,0.825-2.348,0.996c-0.922,0.172-1.982,0.258-3.182,0.258h-26.035
				l7.328-46.414H219.542z M200.063,100.013l-5.014,31.629h15.686c0.9,0,1.467-0.086,1.703-0.258
				c0.235-0.171,0.418-0.707,0.547-1.607l4.436-27.835c0.129-0.942,0.086-1.499-0.129-1.671s-0.729-0.258-1.543-0.258H200.063z"/>
			<path fill="#FFFFFF" d="M212.214,139.395h-26.457l7.441-47.136h26.344c1.215,0,2.276,0.09,3.156,0.265
				c0.923,0.185,1.675,0.552,2.236,1.089c0.571,0.547,0.932,1.32,1.072,2.3c0.133,0.931,0.09,2.134-0.13,3.576l-5.206,32.788
				c-0.221,1.442-0.556,2.645-0.996,3.57c-0.451,0.948-1.027,1.695-1.712,2.221c-0.687,0.525-1.527,0.883-2.501,1.064
				C214.523,139.306,213.431,139.395,212.214,139.395z M186.601,138.673h25.613c1.173,0,2.221-0.084,3.115-0.251
				c0.861-0.159,1.6-0.472,2.194-0.929c0.594-0.453,1.098-1.112,1.499-1.957c0.411-0.861,0.726-1.996,0.936-3.371l5.206-32.787
				c0.208-1.371,0.251-2.503,0.128-3.363c-0.118-0.826-0.398-1.441-0.856-1.881c-0.461-0.441-1.093-0.745-1.879-0.902
				c-0.833-0.166-1.848-0.25-3.015-0.25h-25.727L186.601,138.673z M210.735,132.002h-16.108l5.128-32.351h15.994
				c0.931,0,1.477,0.104,1.768,0.337c0.339,0.271,0.417,0.868,0.262,2.002l-4.437,27.843c-0.148,1.033-0.361,1.604-0.691,1.843
				C212.341,131.901,211.75,132.002,210.735,132.002z M195.473,131.28h15.263c1.144,0,1.43-0.145,1.491-0.188
				c0.023-0.017,0.234-0.2,0.401-1.366l4.437-27.841c0.153-1.124,0.001-1.331-0.006-1.34c-0.029-0.022-0.269-0.171-1.31-0.171
				h-15.377L195.473,131.28z"/>
		</g>
		<g>
			<path fill="#FFFFFF" d="M237.541,139.034h-7.714l4.371-27.964h-5.721l1.221-7.394h13.436L237.541,139.034z M243.712,100.013
				h-7.714l1.157-7.393h7.714L243.712,100.013z"/>
			<path fill="#FFFFFF" d="M237.85,139.395h-8.444l4.371-27.964h-5.725l1.341-8.114h14.164L237.85,139.395z M230.249,138.673h6.983
				l5.479-34.635h-12.707l-1.101,6.672h5.717L230.249,138.673z M244.021,100.374h-8.444l1.271-8.115h8.444L244.021,100.374z
				 M236.42,99.651h6.983l1.044-6.67h-6.983L236.42,99.651z"/>
		</g>
		<g>
			<path fill="#FFFFFF" d="M274.375,139.034h-7.714l4.114-26.036c0.129-0.942,0.075-1.499-0.16-1.671
				c-0.236-0.171-0.762-0.257-1.575-0.257h-10.35c-0.815,0-1.361,0.086-1.641,0.257c-0.279,0.172-0.481,0.729-0.61,1.671
				l-4.114,26.036h-7.713l4.499-28.543c0.214-1.414,0.536-2.571,0.964-3.471c0.429-0.9,0.975-1.597,1.641-2.09
				c0.663-0.492,1.455-0.824,2.378-0.996c0.921-0.172,1.981-0.258,3.183-0.258h15.62c1.2,0,2.229,0.086,3.086,0.258
				c0.856,0.172,1.543,0.504,2.057,0.996c0.515,0.493,0.837,1.189,0.964,2.09c0.129,0.899,0.086,2.057-0.127,3.471L274.375,139.034z
				"/>
			<path fill="#FFFFFF" d="M274.684,139.395h-8.444l4.18-26.452c0.153-1.125-0.014-1.32-0.021-1.328
				c-0.055-0.039-0.334-0.184-1.357-0.184h-10.35c-0.974,0-1.328,0.128-1.452,0.204c-0.045,0.028-0.279,0.228-0.441,1.412
				l-4.163,26.348h-8.443l4.564-28.96c0.218-1.438,0.552-2.639,0.994-3.569c0.453-0.951,1.043-1.699,1.752-2.224
				c0.704-0.523,1.555-0.881,2.526-1.063c0.939-0.174,2.032-0.263,3.249-0.263h15.62c1.217,0,2.279,0.089,3.156,0.265
				c0.923,0.185,1.675,0.552,2.236,1.09c0.573,0.549,0.934,1.322,1.071,2.299c0.133,0.928,0.09,2.131-0.128,3.575L274.684,139.395z
				 M267.083,138.673h6.983l4.453-28.238c0.207-1.372,0.249-2.504,0.126-3.363c-0.114-0.813-0.402-1.445-0.856-1.879
				c-0.46-0.442-1.092-0.746-1.878-0.904c-0.83-0.166-1.845-0.25-3.015-0.25h-15.62c-1.172,0-2.221,0.084-3.116,0.252
				c-0.864,0.16-1.613,0.474-2.229,0.931c-0.613,0.454-1.128,1.112-1.529,1.954c-0.412,0.867-0.727,2-0.934,3.371l-4.434,28.127
				h6.982l4.066-25.73c0.148-1.088,0.389-1.684,0.777-1.922c0.347-0.213,0.928-0.311,1.83-0.311h10.35
				c0.912,0,1.479,0.104,1.787,0.324c0.365,0.268,0.46,0.889,0.306,2.013L267.083,138.673z"/>
		</g>
		<g>
			<path fill="#FFFFFF" d="M306.968,112.998c0.128-0.942,0.074-1.499-0.161-1.671c-0.235-0.171-0.761-0.257-1.575-0.257h-19.35
				l1.222-7.394h21.985c1.199,0,2.229,0.086,3.086,0.258s1.543,0.504,2.057,0.996c0.515,0.493,0.836,1.189,0.965,2.09
				c0.129,0.899,0.085,2.057-0.129,3.471l-3.471,21.729c-0.216,1.414-0.536,2.571-0.965,3.471c-0.429,0.9-0.964,1.598-1.607,2.09
				c-0.643,0.493-1.425,0.825-2.346,0.996c-0.922,0.172-1.983,0.258-3.183,0.258h-15.622c-1.199,0-2.229-0.086-3.085-0.258
				c-0.857-0.171-1.543-0.503-2.057-0.996c-0.515-0.492-0.847-1.189-0.997-2.09c-0.15-0.899-0.117-2.057,0.097-3.471l1.351-8.485
				c0.213-1.415,0.535-2.571,0.965-3.472c0.427-0.9,0.973-1.596,1.639-2.089c0.664-0.493,1.456-0.825,2.379-0.997
				c0.92-0.171,1.981-0.257,3.182-0.257h14.979L306.968,112.998z M289.933,129.712c-0.129,0.943-0.076,1.501,0.16,1.672
				c0.234,0.172,0.76,0.258,1.575,0.258h10.35c0.813,0,1.36-0.086,1.64-0.258c0.278-0.171,0.482-0.729,0.61-1.672l0.9-5.399h-12.343
				c-0.814,0-1.361,0.086-1.639,0.257c-0.279,0.172-0.506,0.73-0.676,1.672L289.933,129.712z"/>
			<path fill="#FFFFFF" d="M303.496,139.395h-15.622c-1.219,0-2.281-0.089-3.156-0.264c-0.922-0.185-1.674-0.552-2.235-1.091
				c-0.568-0.543-0.94-1.314-1.103-2.289c-0.156-0.932-0.124-2.137,0.096-3.586l1.351-8.487c0.217-1.438,0.552-2.641,0.996-3.57
				c0.449-0.948,1.038-1.697,1.749-2.224c0.706-0.523,1.557-0.881,2.528-1.062c0.938-0.175,2.03-0.263,3.247-0.263h14.672
				l0.593-3.619c0.152-1.123-0.015-1.318-0.022-1.326c-0.055-0.039-0.333-0.184-1.357-0.184h-19.775l1.342-8.114h22.291
				c1.217,0,2.279,0.089,3.156,0.265c0.923,0.185,1.675,0.551,2.236,1.09c0.571,0.547,0.932,1.32,1.072,2.298
				c0.133,0.927,0.089,2.131-0.13,3.577l-3.471,21.73c-0.221,1.444-0.556,2.646-0.995,3.57c-0.453,0.949-1.029,1.696-1.715,2.221
				c-0.684,0.524-1.524,0.883-2.498,1.064C305.807,139.306,304.713,139.395,303.496,139.395z M291.347,117.28
				c-1.173,0-2.221,0.085-3.115,0.252c-0.862,0.16-1.613,0.473-2.23,0.932c-0.614,0.455-1.129,1.112-1.527,1.953
				c-0.414,0.867-0.728,2-0.935,3.371l-1.351,8.488c-0.207,1.37-0.24,2.5-0.098,3.355c0.138,0.818,0.437,1.453,0.891,1.888
				c0.462,0.442,1.093,0.747,1.878,0.903c0.829,0.166,1.843,0.25,3.015,0.25h15.622c1.173,0,2.222-0.084,3.116-0.251
				c0.861-0.16,1.599-0.472,2.192-0.928c0.594-0.454,1.099-1.112,1.501-1.958c0.41-0.859,0.724-1.994,0.935-3.371l3.471-21.73
				c0.208-1.373,0.251-2.506,0.128-3.363c-0.116-0.814-0.405-1.447-0.857-1.879c-0.461-0.443-1.093-0.746-1.878-0.904
				c-0.83-0.166-1.845-0.25-3.015-0.25h-21.68l-1.102,6.672h18.924c0.913,0,1.481,0.104,1.787,0.325
				c0.365,0.267,0.46,0.887,0.307,2.011l-0.693,4.234H291.347z M302.018,132.002h-10.35c-0.916,0-1.484-0.104-1.789-0.327
				c-0.368-0.267-0.46-0.869-0.304-2.012l0.58-3.481c0.193-1.077,0.461-1.685,0.842-1.919c0.344-0.212,0.925-0.311,1.828-0.311
				h12.769l-0.971,5.82c-0.146,1.084-0.387,1.68-0.777,1.919C303.502,131.903,302.921,132.002,302.018,132.002z M292.825,124.673
				c-0.975,0-1.326,0.128-1.449,0.204c-0.048,0.029-0.295,0.235-0.51,1.428l-0.578,3.467c-0.152,1.121,0.014,1.316,0.021,1.324
				c0.057,0.041,0.332,0.185,1.358,0.185h10.35c0.974,0,1.327-0.127,1.45-0.203c0.028-0.018,0.278-0.203,0.442-1.413l0.832-4.991
				H292.825z"/>
		</g>
		<g>
			<path fill="#FFFFFF" d="M347.402,139.034h-7.714l4.114-26.036c0.128-0.942,0.073-1.499-0.161-1.671
				c-0.235-0.171-0.761-0.257-1.575-0.257h-10.35c-0.814,0-1.361,0.086-1.64,0.257c-0.279,0.172-0.481,0.729-0.61,1.671
				l-4.114,26.036h-7.714l4.5-28.543c0.214-1.414,0.535-2.571,0.964-3.471c0.428-0.9,0.975-1.597,1.64-2.09
				c0.664-0.492,1.456-0.824,2.379-0.996c0.92-0.172,1.981-0.258,3.182-0.258h15.621c1.199,0,2.229,0.086,3.086,0.258
				c0.856,0.172,1.543,0.504,2.057,0.996c0.515,0.493,0.836,1.189,0.964,2.09c0.129,0.899,0.086,2.057-0.128,3.471L347.402,139.034z
				"/>
			<path fill="#FFFFFF" d="M347.711,139.395h-8.444l4.18-26.452c0.152-1.124-0.016-1.32-0.022-1.328
				c-0.055-0.039-0.333-0.184-1.357-0.184h-10.35c-0.974,0-1.327,0.128-1.451,0.204c-0.045,0.028-0.279,0.228-0.441,1.412
				l-4.163,26.348h-8.444l4.565-28.96c0.218-1.439,0.553-2.643,0.994-3.57c0.451-0.948,1.041-1.697,1.751-2.223
				c0.705-0.523,1.556-0.881,2.527-1.063c0.938-0.174,2.031-0.263,3.248-0.263h15.621c1.217,0,2.279,0.089,3.156,0.265
				c0.923,0.185,1.675,0.552,2.236,1.09c0.571,0.547,0.932,1.32,1.071,2.299c0.133,0.929,0.09,2.132-0.129,3.576L347.711,139.395z
				 M340.11,138.673h6.983l4.452-28.238c0.207-1.371,0.25-2.504,0.127-3.363c-0.115-0.814-0.403-1.446-0.856-1.879
				c-0.46-0.442-1.092-0.746-1.878-0.904c-0.83-0.166-1.845-0.25-3.015-0.25h-15.621c-1.173,0-2.221,0.084-3.115,0.252
				c-0.863,0.16-1.613,0.474-2.23,0.932c-0.614,0.455-1.129,1.111-1.528,1.953c-0.412,0.863-0.726,1.998-0.934,3.371l-4.435,28.127
				h6.983l4.066-25.73c0.148-1.088,0.389-1.684,0.777-1.922c0.346-0.213,0.927-0.311,1.829-0.311h10.35
				c0.913,0,1.481,0.104,1.787,0.325c0.365,0.268,0.459,0.888,0.307,2.011L340.11,138.673z"/>
		</g>
		<g>
			<path fill="#FFFFFF" d="M380.959,119.556c-1.201,0-2.229-0.086-3.086-0.258c-0.857-0.17-1.543-0.503-2.058-0.996
				c-0.514-0.492-0.836-1.189-0.964-2.089c-0.129-0.899-0.086-2.058,0.128-3.472l2.122-13.307c0.214-1.414,0.535-2.571,0.964-3.471
				c0.429-0.901,0.975-1.598,1.64-2.09c0.664-0.492,1.456-0.824,2.378-0.996s1.982-0.258,3.183-0.258h17.807
				c1.199,0,2.229,0.086,3.086,0.258c0.856,0.172,1.543,0.504,2.057,0.996c0.515,0.492,0.836,1.188,0.965,2.09
				c0.128,0.899,0.085,2.057-0.129,3.471l-1.093,7.008h-7.714l0.707-4.501c0.129-0.942,0.085-1.499-0.129-1.671
				c-0.215-0.172-0.729-0.258-1.543-0.258h-12.535c-0.814,0-1.372,0.086-1.672,0.258s-0.514,0.729-0.643,1.671l-1.35,8.292
				c-0.129,0.943-0.075,1.502,0.16,1.672c0.235,0.172,0.761,0.258,1.575,0.258h15.235c1.199,0,2.229,0.086,3.086,0.257
				s1.543,0.505,2.057,0.997c0.515,0.492,0.836,1.188,0.965,2.088c0.129,0.9,0.085,2.059-0.129,3.473l-2.121,13.242
				c-0.215,1.414-0.536,2.571-0.964,3.471c-0.43,0.9-0.965,1.598-1.607,2.09c-0.643,0.493-1.426,0.825-2.347,0.996
				c-0.922,0.172-1.982,0.258-3.182,0.258h-17.808c-1.2,0-2.229-0.086-3.086-0.258c-0.857-0.171-1.542-0.503-2.057-0.996
				c-0.514-0.492-0.847-1.189-0.996-2.09c-0.15-0.899-0.118-2.057,0.097-3.471l1.156-7.008h7.715l-0.771,4.5
				c-0.129,0.943-0.076,1.501,0.16,1.672c0.235,0.172,0.761,0.258,1.575,0.258h12.535c0.814,0,1.36-0.086,1.64-0.258
				c0.278-0.171,0.482-0.729,0.61-1.672l1.351-8.229c0.128-0.941,0.074-1.499-0.161-1.671c-0.235-0.171-0.761-0.257-1.575-0.257
				H380.959z"/>
			<path fill="#FFFFFF" d="M395.809,139.395h-17.808c-1.219,0-2.281-0.089-3.156-0.264c-0.921-0.185-1.674-0.551-2.236-1.09
				c-0.569-0.546-0.94-1.317-1.103-2.291c-0.155-0.933-0.123-2.14,0.097-3.585l1.206-7.313h8.449l-0.844,4.922
				c-0.152,1.119,0.014,1.314,0.021,1.322c0.057,0.04,0.333,0.185,1.358,0.185h12.535c0.974,0,1.327-0.127,1.45-0.203
				c0.028-0.018,0.278-0.203,0.442-1.413l1.352-8.239c0.152-1.121-0.015-1.316-0.022-1.324c-0.055-0.04-0.334-0.185-1.357-0.185
				h-15.234c-1.223,0-2.284-0.089-3.157-0.264c-0.92-0.183-1.672-0.55-2.236-1.09c-0.571-0.548-0.932-1.321-1.071-2.299
				c-0.133-0.929-0.09-2.132,0.129-3.576l2.122-13.31c0.218-1.439,0.553-2.643,0.994-3.57c0.452-0.949,1.041-1.697,1.751-2.225
				c0.705-0.522,1.556-0.879,2.526-1.061c0.943-0.175,2.036-0.264,3.249-0.264h17.807c1.215,0,2.276,0.09,3.156,0.265
				c0.923,0.185,1.675,0.552,2.236,1.089c0.571,0.549,0.932,1.322,1.072,2.3c0.132,0.931,0.089,2.134-0.13,3.576l-1.141,7.314
				h-8.444l0.772-4.917c0.153-1.124,0.001-1.333-0.006-1.342c-0.029-0.021-0.269-0.17-1.31-0.17h-12.535
				c-0.979,0-1.355,0.131-1.493,0.21c-0.049,0.028-0.303,0.228-0.464,1.406l-1.351,8.302c-0.153,1.121,0.014,1.318,0.021,1.326
				c0.057,0.04,0.332,0.184,1.358,0.184h15.235c1.215,0,2.276,0.089,3.156,0.264c0.921,0.185,1.673,0.551,2.236,1.09
				c0.571,0.549,0.932,1.322,1.072,2.299c0.133,0.928,0.089,2.131-0.13,3.577l-2.121,13.245c-0.219,1.439-0.554,2.643-0.994,3.569
				c-0.454,0.95-1.03,1.697-1.714,2.222c-0.685,0.524-1.525,0.883-2.5,1.064C398.118,139.306,397.025,139.395,395.809,139.395z
				 M373.422,125.573l-1.106,6.705c-0.208,1.365-0.24,2.494-0.098,3.354c0.136,0.816,0.436,1.452,0.891,1.888
				c0.462,0.442,1.094,0.747,1.877,0.903c0.83,0.166,1.845,0.25,3.016,0.25h17.808c1.173,0,2.221-0.084,3.115-0.251
				c0.862-0.16,1.6-0.472,2.193-0.928c0.593-0.454,1.098-1.112,1.502-1.958c0.41-0.863,0.724-1.998,0.933-3.371l2.121-13.245
				c0.208-1.373,0.251-2.505,0.128-3.363c-0.116-0.813-0.404-1.446-0.857-1.88c-0.462-0.442-1.094-0.746-1.877-0.902
				c-0.834-0.166-1.849-0.251-3.016-0.251h-15.235c-0.915,0-1.483-0.104-1.788-0.326c-0.364-0.265-0.459-0.885-0.305-2.013
				l1.351-8.301c0.147-1.076,0.408-1.691,0.82-1.927c0.359-0.205,0.965-0.306,1.851-0.306h12.535c0.931,0,1.477,0.104,1.768,0.337
				c0.339,0.271,0.417,0.87,0.262,2.002l-0.643,4.091h6.983l1.045-6.703c0.207-1.371,0.25-2.503,0.128-3.363
				c-0.116-0.814-0.404-1.447-0.857-1.881c-0.46-0.441-1.092-0.745-1.878-0.902c-0.833-0.166-1.848-0.25-3.015-0.25h-17.807
				c-1.169,0-2.218,0.084-3.117,0.251c-0.861,0.161-1.611,0.474-2.229,0.931c-0.613,0.455-1.128,1.113-1.528,1.955
				c-0.412,0.864-0.726,1.998-0.934,3.37l-2.122,13.31c-0.207,1.371-0.25,2.504-0.127,3.363c0.115,0.814,0.403,1.447,0.856,1.88
				c0.463,0.444,1.095,0.747,1.878,0.903c0.826,0.166,1.841,0.25,3.016,0.25h15.234c0.912,0,1.479,0.104,1.787,0.326
				c0.365,0.267,0.46,0.887,0.307,2.012l-1.352,8.238c-0.147,1.086-0.388,1.682-0.778,1.921c-0.344,0.212-0.925,0.311-1.828,0.311
				h-12.535c-0.915,0-1.482-0.104-1.788-0.327c-0.369-0.267-0.461-0.869-0.305-2.012l0.701-4.09H373.422z"/>
		</g>
		<g>
			<path fill="#FFFFFF" d="M415.672,139.034h-7.649l1.221-7.779h7.65L415.672,139.034z"/>
			<path fill="#FFFFFF" d="M415.98,139.395h-8.38l1.334-8.5h8.381L415.98,139.395z M408.444,138.673h6.919l1.108-7.057h-6.92
				L408.444,138.673z"/>
		</g>
		<g>
			<path fill="#FFFFFF" d="M453.149,139.034h-7.714l2.507-16.072h-16.586l-2.507,16.072h-7.714l6.235-39.6
				c0.214-1.414,0.535-2.571,0.964-3.471c0.429-0.901,0.975-1.598,1.64-2.09c0.664-0.492,1.457-0.824,2.379-0.996
				c0.921-0.172,1.981-0.258,3.182-0.258h17.871c1.199,0,2.229,0.086,3.086,0.258s1.543,0.504,2.057,0.996
				c0.515,0.492,0.837,1.188,0.965,2.09c0.129,0.899,0.085,2.057-0.128,3.471L453.149,139.034z M432.515,115.569H449.1l2.186-13.628
				c0.128-0.942,0.085-1.499-0.129-1.671c-0.215-0.172-0.729-0.258-1.543-0.258h-12.6c-0.814,0-1.372,0.086-1.672,0.258
				s-0.514,0.729-0.642,1.671L432.515,115.569z"/>
			<path fill="#FFFFFF" d="M453.458,139.395h-8.444l2.507-16.071h-15.855l-2.507,16.071h-8.444l6.301-40.017
				c0.218-1.439,0.553-2.643,0.994-3.57c0.452-0.949,1.041-1.697,1.751-2.225c0.705-0.521,1.556-0.879,2.527-1.061
				c0.942-0.175,2.035-0.264,3.248-0.264h17.871c1.215,0,2.276,0.09,3.156,0.265c0.922,0.185,1.675,0.552,2.236,1.089
				c0.572,0.55,0.934,1.323,1.072,2.301c0.135,0.938,0.093,2.107-0.129,3.574L453.458,139.395z M445.857,138.673h6.983l6.188-39.295
				c0.207-1.375,0.25-2.507,0.127-3.363c-0.115-0.813-0.403-1.446-0.857-1.881c-0.461-0.441-1.093-0.745-1.878-0.902
				c-0.833-0.166-1.848-0.25-3.015-0.25h-17.871c-1.169,0-2.218,0.084-3.116,0.251c-0.862,0.161-1.613,0.474-2.229,0.931
				c-0.613,0.455-1.128,1.113-1.528,1.955c-0.412,0.864-0.726,1.998-0.934,3.37l-6.17,39.185h6.983l2.507-16.071h17.316
				L445.857,138.673z M449.407,115.931h-17.315l2.252-14.047c0.146-1.076,0.407-1.691,0.819-1.927
				c0.359-0.205,0.965-0.306,1.851-0.306h12.6c0.931,0,1.477,0.104,1.768,0.337c0.338,0.271,0.416,0.868,0.262,2.001
				L449.407,115.931z M432.938,115.209h15.854l2.137-13.325c0.152-1.123,0-1.331-0.006-1.34c-0.029-0.021-0.269-0.17-1.31-0.17
				h-12.6c-0.979,0-1.355,0.131-1.493,0.21c-0.049,0.028-0.303,0.228-0.463,1.405L432.938,115.209z"/>
		</g>
		<g>
			<path fill="#FFFFFF" d="M466.199,139.034h-7.649l1.222-7.779h7.649L466.199,139.034z"/>
			<path fill="#FFFFFF" d="M466.508,139.395h-8.38l1.335-8.5h8.38L466.508,139.395z M458.972,138.673h6.919l1.108-7.057h-6.919
				L458.972,138.673z"/>
		</g>
	</g>
	<g>
		<path fill="#FFFFFF" d="M159.5,62.659V44.335c-2-0.691-5.259-1.164-8.152-1.391c-1.332-0.109-2.752-0.168-4.118-0.168
			c-5.885,0-11.73,1.009-16.73,2.826V26.659h-8v22.864c-4,2.205-7.427,4.889-10.239,7.939c-2.006-0.801-3.761-1.369-6.761-1.674
			V26.659h-8v29.285c-2,0.343-3.835,0.905-5.653,1.662C88.892,54.358,85.5,51.539,81.5,49.25V26.659h-9v18.776
			c-4-1.714-10.035-2.658-15.74-2.658c-1.307,0-2.586,0.059-3.866,0.155c-2.892,0.22-5.395,0.679-8.395,1.358v18.369h8V50.104
			c2-0.116,2.544-0.181,3.856-0.181c5.801,0,12.144,1.189,16.144,3.305v58.603c-4,2.114-10.343,3.304-16.144,3.304
			c-1.313,0-1.856-0.064-3.856-0.18v-12.295h-8v18.108c3,0.68,5.717,1.139,8.608,1.358c1.279,0.097,2.247,0.155,3.553,0.155
			c5.703,0,11.839-0.945,15.839-2.658v19.037h9v-22.851c4-2.232,7.224-4.974,10.134-8.117c1.883,0.803,3.866,1.391,5.866,1.746
			v29.222h8v-29.066c3-0.317,4.904-0.912,6.979-1.76c2.762,2.956,6.021,5.549,10.021,7.703v23.123h8v-19.205
			c5,1.817,10.973,2.826,16.858,2.826c1.365,0,2.556-0.059,3.89-0.168c2.891-0.227,6.252-0.698,8.252-1.391v-18.063h-8v12.276
			c-2,0.129-2.831,0.199-4.194,0.199c-5.995,0-11.806-1.273-16.806-3.523V53.446c5-2.25,10.811-3.523,16.806-3.523
			c1.363,0,2.194,0.07,4.194,0.2v12.536H159.5z M81.5,58.232c1,1.054,2.567,2.186,3.712,3.396c-1.352,1.1-2.712,2.328-3.712,3.666
			V58.232z M81.5,106.824v-6.738c1,1.28,2.251,2.458,3.53,3.524C83.938,104.749,82.5,105.829,81.5,106.824z M89.381,98.411
			c-4.112-3.266-6.938-8.064-7.618-13.541c-0.104-0.835-0.161-1.682-0.161-2.549c0-0.859,0.058-1.707,0.161-2.541
			c0.666-5.4,3.428-10.146,7.443-13.406c3.078,4.766,4.844,10.275,4.844,16.154C94.05,88.296,92.35,93.71,89.381,98.411z
			 M97.5,102.427c-1-0.109-1.061-0.246-1.577-0.4c0.563-0.887,1.577-1.785,1.577-2.709V102.427z M97.5,65.741
			c-1-1.042-1.157-2.063-1.804-3.053c0.588-0.182,0.804-0.336,1.804-0.466V65.741z M122.5,58.627v5.567
			c-1-1.002-1.94-1.928-3.014-2.78C120.431,60.431,121.5,59.5,122.5,58.627z M105.5,102.427v-4.061c1,1.216,1.261,2.393,1.985,3.543
			C106.839,102.11,106.5,102.284,105.5,102.427z M105.5,66.69v-4.468c1,0.155,1.487,0.355,2.205,0.595
			C106.89,64.065,106.5,65.359,105.5,66.69z M122.5,106.431c-1-0.822-1.946-1.688-2.839-2.601c1.009-0.814,1.839-1.7,2.839-2.645
			V106.431z M122.505,84.87c-0.66,5.335-3.356,10.029-7.295,13.289c-2.871-4.644-4.508-9.967-4.508-15.631
			c0-5.769,1.701-11.188,4.676-15.889c3.848,3.246,6.474,7.883,7.127,13.141c0.104,0.834,0.161,1.682,0.161,2.541
			C122.666,83.188,122.608,84.035,122.505,84.87z"/>
	</g>
</g>
</svg>
