<svg xmlns="http://www.w3.org/2000/svg" xmlns:xlink="http://www.w3.org/1999/xlink" id="Layer_1" x="0px" y="0px" width="221.5px" height="212.418px" viewBox="0 0 221.5 212.418" xml:space="preserve">
<g>
	<g>
		<g>
			<path fill="#FFFFFF" d="M189.875,79.581c1.636-9.629,2.451-14.441,4.087-24.071c-2.436-0.919-6.257-1.547-9.952-1.854     c-1.705-0.142-3.682-0.223-5.452-0.223c-7.633,0-15.594,1.343-22.49,3.765c1.737-10.224,2.605-15.334,4.342-25.557     c-4.153,0-6.227,0-10.379,0c-2.089,12.309-3.136,18.465-5.225,30.775c-5.688,2.938-10.738,6.51-15.072,10.57     c-2.423-1.065-4.57-1.819-8.391-2.226c2.655-15.649,3.985-23.474,6.641-39.121c-4.147,0-6.224,0-10.374,0     c-2.671,15.729-4.008,23.595-6.682,39.325c-2.67,0.457-5.177,1.204-7.708,2.212c-3.095-4.326-6.858-8.078-11.529-11.125     c2.066-12.166,3.103-18.248,5.167-30.412c-4.668,0-7,0-11.668,0c-1.722,10.132-2.584,15.199-4.304,25.333     c-4.8-2.282-12.109-3.541-19.509-3.541c-1.692,0-3.52,0.079-5.197,0.206c-3.796,0.29-7.301,0.905-11.348,1.81     c-1.639,9.652-2.458,14.479-4.097,24.132c4.152,0,6.221,0,10.374,0c1.113-6.557,1.669-9.835,2.782-16.392     c2.62-0.156,3.343-0.239,5.042-0.239c7.521,0,15.482,1.583,20.191,4.399c-4.416,26.014-8.841,52.024-13.254,78.039     c-5.665,2.815-14.16,4.399-21.681,4.399c-1.702,0-2.393-0.088-4.962-0.24c1.133-6.68,1.705-10.021,2.837-16.7     c-4.15,0-6.226,0-10.374,0c-1.661,9.776-2.491,14.664-4.152,24.44c3.738,0.906,7.465,1.518,11.158,1.81     c1.636,0.129,2.731,0.21,4.426,0.21c7.395,0,15.412-1.266,20.985-3.546c-1.699,10.007-2.549,15.013-4.249,25.019     c4.668,0,7.008,0,11.679,0c2.043-12.038,3.065-18.058,5.108-30.097c5.693-2.97,10.49-6.621,14.977-10.806     c2.261,1.069,4.696,1.851,7.21,2.323c-2.62,15.435-3.927,23.149-6.547,38.58c4.147,0,6.224,0,10.374,0     c2.604-15.348,3.91-23.024,6.515-38.375c3.965-0.421,6.565-1.211,9.453-2.339c2.914,3.934,6.555,7.387,11.254,10.257     c-2.069,12.185-3.103,18.274-5.172,30.457c4.15,0,6.224,0,10.374,0c1.714-10.096,2.572-15.145,4.287-25.241     c6.072,2.422,13.899,3.769,21.529,3.769c1.773,0,3.174-0.085,4.924-0.228c3.799-0.31,8.118-0.932,10.865-1.854     c1.659-9.751,2.486-14.625,4.143-24.378c-4.147,0-6.224,0-10.374,0c-1.133,6.67-1.697,10.002-2.83,16.672     c-2.623,0.173-3.72,0.268-5.485,0.268c-7.779,0-15.022-1.693-21-4.69c4.388-25.818,8.766-51.638,13.156-77.455     c6.995-2.998,14.815-4.691,22.594-4.691c1.765,0,2.83,0.096,5.392,0.269c-1.11,6.545-1.664,9.816-2.777,16.362     C183.651,79.581,185.725,79.581,189.875,79.581z M89.664,74.012c1.057,1.405,2.833,2.915,4.046,4.524     c-2.003,1.465-4.046,3.097-5.645,4.879C88.706,79.654,89.027,77.774,89.664,74.012z M78.679,138.72     c0.607-3.589,0.911-5.382,1.518-8.97c1.006,1.703,2.367,3.27,3.783,4.69C82.305,135.958,80.199,137.393,78.679,138.72z      M91.412,127.518c-4.595-4.35-7.182-10.739-6.826-18.03c0.056-1.11,0.175-2.241,0.369-3.394c0.197-1.146,0.46-2.277,0.784-3.386     c2.079-7.192,6.737-13.512,12.685-17.853c2.914,6.347,3.96,13.683,2.63,21.513C99.75,114.047,96.326,121.258,91.412,127.518z      M100.418,132.865c-1.27-0.145-1.315-0.325-1.953-0.532c0.931-1.181,2.448-2.379,2.656-3.609     C100.843,130.379,100.701,131.208,100.418,132.865z M108.713,84.013c-1.062-1.391-1.027-2.747-1.644-4.064     c0.804-0.239,1.113-0.448,2.44-0.619C109.191,81.204,109.032,82.139,108.713,84.013z M110.791,132.865     c0.283-1.657,0.425-2.483,0.706-4.14c-0.209,1.232,0.906,2.425,1.434,3.605C112.228,132.538,112.114,132.721,110.791,132.865z      M119.092,84.013c0.319-1.874,0.476-2.81,0.794-4.684c1.27,0.171,1.512,0.38,2.233,0.619     C121.059,81.267,120.624,82.623,119.092,84.013z M122.39,127.517c-2.787-6.261-3.766-13.47-2.463-21.15     c1.33-7.83,4.866-15.164,9.937-21.511c4.469,4.341,6.98,10.659,6.623,17.854c-0.056,1.109-0.174,2.237-0.369,3.383     c-0.197,1.153-0.46,2.28-0.784,3.392C133.213,116.774,128.461,123.167,122.39,127.517z M131.848,138.72     c-1.072-1.327-2.693-2.763-3.849-4.279c1.896-1.421,3.783-2.985,5.371-4.688C132.763,133.341,132.46,135.131,131.848,138.72z      M141.24,83.419c-0.996-1.783-2.483-3.418-3.985-4.884c1.755-1.609,4.046-3.118,5.584-4.523     C142.202,77.774,141.878,79.657,141.24,83.419z"></path>
		</g>
	</g>
</g>
</svg>